<?xml version="1.0" standalone="no"?><!DOCTYPE svg PUBLIC "-//W3C//DTD SVG 1.1//EN" "http://www.w3.org/Graphics/SVG/1.1/DTD/svg11.dtd"><svg t="1564801431737" class="icon" viewBox="0 0 1024 1024" version="1.1" xmlns="http://www.w3.org/2000/svg" p-id="746" xmlns:xlink="http://www.w3.org/1999/xlink" width="200" height="200"><defs><style type="text/css"></style></defs><path d="M928.016 127.978c17.718 0 31.995 14.278 31.99500001 31.995L960.011 608.06999999c0 17.717-14.277 31.995-31.995 31.99500001s-31.994-14.278-31.994-31.99500001l0-447.92499999c0-17.89000001 14.277-32.16700001 31.994-32.167zM159.801 640.065L349.19 640.065c-13.761 31.994-29.587 114.733-20.47 190.075 7.225 59.86099999 42.487 105.789 93.748 123.334 38.015 12.901 78.266 6.53699999 99.94-15.481 25.802-26.318 37.843-75.858 50.744-128.323 8.429-34.23 17.03-69.837 27.866-88.243 31.135-52.98 96.328-77.062 109.401-81.362L800.21 640.065c17.717 0 31.994-14.278 31.994-31.995l0-447.925c0-17.717-14.277-31.994-31.994-31.994l-86.523 0c-26.835-14.45-126.43-63.99-241.85200001-63.99l-215.878 0c-35.607 0-96.844 13.761-119.72199999 51.777-23.05000001 38.53-71.902 388.751-71.902 427.455-0.17200001 53.324 52.12 96.67200001 95.468 96.672z m30.963-491.273c4.816-8.084 36.467-20.641 64.849-20.641l216.05 0c114.217 0 215.19 63.989 216.221 63.989L768.04300001 192.14 768.043 576.075l-63.99 0c-2.58000001 0-4.988 0.86-7.396 1.548-0.516 0.17200001-1.032 0-1.548 0.172-0.172 0.172-0.86 0.344-1.72 0.516-0.86 0.344-1.72 0.344-2.58 0.86-19.438 6.365-102.52 37.328-145.18 109.918-15.482 26.318-24.942 64.849-34.747 105.444-9.11699999 37.843-20.642 84.975-34.059 98.564-3.096 2.58-18.061 6.02-36.81-1.376-15.31-6.02-41.972-23.05000001-47.64899999-69.666-12.557-102.52 31.479-200.05199999 31.82299999-201.084 4.644-9.977 3.784-21.15800001-2.064-30.275-5.849-9.116-15.998-14.44900001-26.835-14.44899999l-235.315-1e-8c-8.773 0-31.65-14.96500001-31.65-32.854-0.172-42.832 49.196-364.326 62.44-394.6z" p-id="747"></path></svg>