<?xml version="1.0" standalone="no"?><!DOCTYPE svg PUBLIC "-//W3C//DTD SVG 1.1//EN" "http://www.w3.org/Graphics/SVG/1.1/DTD/svg11.dtd"><svg t="1564386269517" class="icon" viewBox="0 0 1024 1024" version="1.1" xmlns="http://www.w3.org/2000/svg" p-id="608" xmlns:xlink="http://www.w3.org/1999/xlink" width="200" height="200"><defs><style type="text/css"></style></defs><path d="M121.018 912.29h786.618v65.165H121.018z m55.855-130.326h9.309l204.8-65.164c4.654 0 9.309-4.655 13.963-9.31L870.4 242.037c4.655-4.654 9.31-13.963 9.31-23.272s-4.655-18.619-9.31-23.273L726.11 51.2c-13.965-13.964-32.583-13.964-46.546 0L214.109 516.655c-4.654 4.654-4.654 9.309-9.309 13.963l-65.164 204.8c-4.654 13.964 0 23.273 9.31 32.582 9.309 9.31 18.618 13.964 27.927 13.964z m93.09-223.419l432.873-432.872 97.746 97.745-432.873 432.873-139.636 41.89 41.89-139.636z" p-id="609"></path></svg>