<?xml version="1.0" standalone="no"?><!DOCTYPE svg PUBLIC "-//W3C//DTD SVG 1.1//EN" "http://www.w3.org/Graphics/SVG/1.1/DTD/svg11.dtd"><svg t="1564371627108" class="icon" viewBox="0 0 1025 1024" version="1.1" xmlns="http://www.w3.org/2000/svg" p-id="1019" xmlns:xlink="http://www.w3.org/1999/xlink" width="200.1953125" height="200"><defs><style type="text/css"></style></defs><path d="M789.567691 726.218957l221.724689 221.767659a44.413089 44.413089 0 0 1 0 62.868828 44.413089 44.413089 0 0 1-62.868828 0L726.657892 789.130755c-174.6685 143.127162-432.878974 133.196298-595.953804-29.878532-173.730174-173.688204-173.730174-455.297866 0-628.98607 173.688204-173.688204 455.297866-173.688204 628.98607 0 163.117799 163.07483 173.005694 421.284305 29.878532 595.952804zM193.614887 193.177951a355.773375 355.773375 0 0 0 0 503.205443 355.773375 355.773375 0 0 0 503.163474 0h0.04197v-0.042969a355.816344 355.816344 0 0 0-503.205444-503.162474z" p-id="1020"></path></svg>